<mxfile host="app.diagrams.net" modified="2024-02-07T10:23:18.681Z" agent="Mozilla/5.0 (X11; Ubuntu; Linux x86_64; rv:122.0) Gecko/20100101 Firefox/122.0" etag="-X7nesfXP0LAIFh-wbPi" version="23.1.1" type="github">
  <diagram name="Page-1" id="T2_2QXnSuRyz9yai2xdV">
    <mxGraphModel dx="1434" dy="648" grid="1" gridSize="10" guides="1" tooltips="1" connect="1" arrows="1" fold="1" page="1" pageScale="1" pageWidth="850" pageHeight="1100" math="0" shadow="0">
      <root>
        <mxCell id="0" />
        <mxCell id="1" parent="0" />
        <mxCell id="N3zbZ50Qf8jsB-p0_rUj-21" value="" style="group" vertex="1" connectable="0" parent="1">
          <mxGeometry x="260" y="40" width="280" height="80" as="geometry" />
        </mxCell>
        <mxCell id="N3zbZ50Qf8jsB-p0_rUj-6" value="&lt;i&gt;LinkablePart&lt;/i&gt;" style="swimlane;fontStyle=0;childLayout=stackLayout;horizontal=1;startSize=26;fillColor=none;horizontalStack=0;resizeParent=1;resizeParentMax=0;resizeLast=0;collapsible=1;marginBottom=0;whiteSpace=wrap;html=1;" vertex="1" parent="N3zbZ50Qf8jsB-p0_rUj-21">
          <mxGeometry width="280" height="52.666666666666664" as="geometry">
            <mxRectangle x="320" y="120" width="110" height="30" as="alternateBounds" />
          </mxGeometry>
        </mxCell>
        <mxCell id="N3zbZ50Qf8jsB-p0_rUj-7" value="# p_pression : float " style="text;strokeColor=none;fillColor=none;align=left;verticalAlign=top;spacingLeft=4;spacingRight=4;overflow=hidden;rotatable=0;points=[[0,0.5],[1,0.5]];portConstraint=eastwest;whiteSpace=wrap;html=1;" vertex="1" parent="N3zbZ50Qf8jsB-p0_rUj-6">
          <mxGeometry y="26" width="280" height="26.666666666666664" as="geometry" />
        </mxCell>
        <mxCell id="N3zbZ50Qf8jsB-p0_rUj-12" value="#&amp;nbsp; {virtual}&amp;nbsp; execute(float p_pression) = 0 : void " style="text;strokeColor=default;fillColor=none;align=left;verticalAlign=top;spacingLeft=4;spacingRight=4;overflow=hidden;rotatable=0;points=[[0,0.5],[1,0.5]];portConstraint=eastwest;whiteSpace=wrap;html=1;" vertex="1" parent="N3zbZ50Qf8jsB-p0_rUj-21">
          <mxGeometry y="53.33333333333333" width="280" height="26.666666666666664" as="geometry" />
        </mxCell>
        <mxCell id="N3zbZ50Qf8jsB-p0_rUj-22" value="" style="group" vertex="1" connectable="0" parent="1">
          <mxGeometry x="490" y="200" width="230" height="78" as="geometry" />
        </mxCell>
        <mxCell id="N3zbZ50Qf8jsB-p0_rUj-13" value="Wheel" style="swimlane;fontStyle=0;childLayout=stackLayout;horizontal=1;startSize=26;fillColor=none;horizontalStack=0;resizeParent=1;resizeParentMax=0;resizeLast=0;collapsible=1;marginBottom=0;whiteSpace=wrap;html=1;" vertex="1" parent="N3zbZ50Qf8jsB-p0_rUj-22">
          <mxGeometry width="230" height="52" as="geometry">
            <mxRectangle x="320" y="120" width="110" height="30" as="alternateBounds" />
          </mxGeometry>
        </mxCell>
        <mxCell id="N3zbZ50Qf8jsB-p0_rUj-14" value="-&amp;nbsp; p_force : float " style="text;strokeColor=none;fillColor=none;align=left;verticalAlign=top;spacingLeft=4;spacingRight=4;overflow=hidden;rotatable=0;points=[[0,0.5],[1,0.5]];portConstraint=eastwest;whiteSpace=wrap;html=1;" vertex="1" parent="N3zbZ50Qf8jsB-p0_rUj-13">
          <mxGeometry y="26" width="230" height="26" as="geometry" />
        </mxCell>
        <mxCell id="N3zbZ50Qf8jsB-p0_rUj-15" value="-&amp;nbsp; executeRotation(float p_force) : void" style="text;strokeColor=default;fillColor=none;align=left;verticalAlign=top;spacingLeft=4;spacingRight=4;overflow=hidden;rotatable=0;points=[[0,0.5],[1,0.5]];portConstraint=eastwest;whiteSpace=wrap;html=1;" vertex="1" parent="N3zbZ50Qf8jsB-p0_rUj-22">
          <mxGeometry y="52" width="230" height="26" as="geometry" />
        </mxCell>
        <mxCell id="N3zbZ50Qf8jsB-p0_rUj-30" value="" style="endArrow=block;endSize=16;endFill=0;html=1;rounded=0;exitX=0.5;exitY=0;exitDx=0;exitDy=0;entryX=1;entryY=1.075;entryDx=0;entryDy=0;entryPerimeter=0;" edge="1" parent="1" source="N3zbZ50Qf8jsB-p0_rUj-13" target="N3zbZ50Qf8jsB-p0_rUj-12">
          <mxGeometry width="160" relative="1" as="geometry">
            <mxPoint x="270" y="270" as="sourcePoint" />
            <mxPoint x="410" y="240" as="targetPoint" />
          </mxGeometry>
        </mxCell>
        <mxCell id="N3zbZ50Qf8jsB-p0_rUj-31" value="" style="group" vertex="1" connectable="0" parent="1">
          <mxGeometry x="550" y="440" width="230" height="78" as="geometry" />
        </mxCell>
        <mxCell id="N3zbZ50Qf8jsB-p0_rUj-32" value="Gear" style="swimlane;fontStyle=0;childLayout=stackLayout;horizontal=1;startSize=26;fillColor=none;horizontalStack=0;resizeParent=1;resizeParentMax=0;resizeLast=0;collapsible=1;marginBottom=0;whiteSpace=wrap;html=1;" vertex="1" parent="N3zbZ50Qf8jsB-p0_rUj-31">
          <mxGeometry x="-110" y="-90" width="130" height="52" as="geometry">
            <mxRectangle x="320" y="120" width="110" height="30" as="alternateBounds" />
          </mxGeometry>
        </mxCell>
        <mxCell id="N3zbZ50Qf8jsB-p0_rUj-33" value="+&amp;nbsp; demultiplier : int " style="text;strokeColor=none;fillColor=none;align=left;verticalAlign=top;spacingLeft=4;spacingRight=4;overflow=hidden;rotatable=0;points=[[0,0.5],[1,0.5]];portConstraint=eastwest;whiteSpace=wrap;html=1;" vertex="1" parent="N3zbZ50Qf8jsB-p0_rUj-32">
          <mxGeometry y="26" width="130" height="26" as="geometry" />
        </mxCell>
        <mxCell id="N3zbZ50Qf8jsB-p0_rUj-35" value="" style="group" vertex="1" connectable="0" parent="1">
          <mxGeometry x="80" y="320" width="280" height="80" as="geometry" />
        </mxCell>
        <mxCell id="N3zbZ50Qf8jsB-p0_rUj-36" value="GearLever" style="swimlane;fontStyle=0;childLayout=stackLayout;horizontal=1;startSize=26;fillColor=none;horizontalStack=0;resizeParent=1;resizeParentMax=0;resizeLast=0;collapsible=1;marginBottom=0;whiteSpace=wrap;html=1;" vertex="1" parent="N3zbZ50Qf8jsB-p0_rUj-35">
          <mxGeometry width="280" height="52.666666666666664" as="geometry">
            <mxRectangle x="320" y="120" width="110" height="30" as="alternateBounds" />
          </mxGeometry>
        </mxCell>
        <mxCell id="N3zbZ50Qf8jsB-p0_rUj-37" value="# level : int " style="text;strokeColor=none;fillColor=none;align=left;verticalAlign=top;spacingLeft=4;spacingRight=4;overflow=hidden;rotatable=0;points=[[0,0.5],[1,0.5]];portConstraint=eastwest;whiteSpace=wrap;html=1;" vertex="1" parent="N3zbZ50Qf8jsB-p0_rUj-36">
          <mxGeometry y="26" width="280" height="26.666666666666664" as="geometry" />
        </mxCell>
        <mxCell id="N3zbZ50Qf8jsB-p0_rUj-38" value="#&amp;nbsp; {virtual}&amp;nbsp; execute(float p_pression) = 0 : void " style="text;strokeColor=default;fillColor=none;align=left;verticalAlign=top;spacingLeft=4;spacingRight=4;overflow=hidden;rotatable=0;points=[[0,0.5],[1,0.5]];portConstraint=eastwest;whiteSpace=wrap;html=1;" vertex="1" parent="N3zbZ50Qf8jsB-p0_rUj-35">
          <mxGeometry y="53.33333333333333" width="280" height="26.666666666666664" as="geometry" />
        </mxCell>
        <mxCell id="N3zbZ50Qf8jsB-p0_rUj-39" value="" style="endArrow=diamondThin;endFill=1;endSize=24;html=1;rounded=0;entryX=-0.031;entryY=0.385;entryDx=0;entryDy=0;entryPerimeter=0;" edge="1" parent="1" target="N3zbZ50Qf8jsB-p0_rUj-32">
          <mxGeometry width="160" relative="1" as="geometry">
            <mxPoint x="370" y="400" as="sourcePoint" />
            <mxPoint x="470" y="330" as="targetPoint" />
          </mxGeometry>
        </mxCell>
      </root>
    </mxGraphModel>
  </diagram>
</mxfile>
